<svg xmlns="http://www.w3.org/2000/svg">
    <symbol id="export-icon" viewBox="0 0 24 24">
        <path id="Union" fill-rule="evenodd" clip-rule="evenodd"
            d="M17.2694 9.36156C17.8397 9.46687 18.3575 9.65844 18.7719 9.92187C19.5753 10.4322 20 11.1984 20 12.1375C20 13.93 18.645 15 16.375 15H12.5V11C12.5 10.9323 12.4862 10.8653 12.4596 10.8031C12.4329 10.7409 12.3939 10.6848 12.3449 10.6381C12.2959 10.5914 12.238 10.5551 12.1745 10.5315C12.1111 10.5079 12.0435 10.4974 11.9759 10.5006C11.7069 10.5141 11.5 10.745 11.5 11.0141V15H8.25C5.74781 15 4 13.5312 4 11.425C4 10.3612 4.42813 9.46344 5.23719 8.82812C5.79594 8.39 6.52719 8.08437 7.375 7.93125C7.4538 7.91705 7.52805 7.88419 7.59155 7.83543C7.65505 7.78666 7.70595 7.7234 7.74 7.65094C8.04608 7.0083 8.49438 6.44374 9.05094 6C9.875 5.34625 10.8953 5 12 5C13.2566 5 14.4422 5.45156 15.3391 6.27187C16.1062 6.97344 16.6294 7.89906 16.875 8.9775C16.8959 9.07308 16.9445 9.16042 17.0146 9.22869C17.0847 9.29696 17.1733 9.34316 17.2694 9.36156ZM10.3531 16.1498L11.5 17.2948V15.0004H12.5V17.2948L13.6468 16.1498C13.7412 16.0584 13.8677 16.0078 13.999 16.0089C14.1303 16.01 14.256 16.0627 14.3488 16.1557C14.4415 16.2487 14.494 16.3744 14.4948 16.5058C14.4956 16.6371 14.4447 16.7635 14.3531 16.8576L12.3531 18.8542C12.2594 18.9477 12.1324 19.0002 12 19.0002C11.8676 19.0002 11.7406 18.9477 11.6468 18.8542L9.64684 16.8576C9.55523 16.7635 9.50433 16.6371 9.50514 16.5058C9.50595 16.3744 9.55841 16.2487 9.65118 16.1557C9.74396 16.0627 9.86959 16.01 10.0009 16.0089C10.1323 16.0078 10.2588 16.0584 10.3531 16.1498Z" />
    </symbol>
</svg>
